HIERARCHY
ROOT Hip
{
	OFFSET 0 0 0
	CHANNELS 6 Xposition Yposition Zposition Zrotation Yrotation Xrotation
	JOINT ShoulderCenter
	{
		OFFSET 0 0.4363 0
		CHANNELS 3 Zrotation Yrotation Xrotation
		JOINT Head
		{
			OFFSET 0 0.1849 0
			CHANNELS 3 Zrotation Yrotation Xrotation
			End Site
			{
				OFFSET 0.0 0.0891 0.0
			}
		}
		JOINT ShoulderLeft
		{
			OFFSET -0.14 0 0
			CHANNELS 3 Zrotation Yrotation Xrotation
			JOINT ElbowLeft
			{
				OFFSET -0.25 0 0
				CHANNELS 3 Zrotation Yrotation Xrotation
				JOINT WristLeft
				{
					OFFSET -0.23 0 0
					CHANNELS 3 Zrotation Yrotation Xrotation
					End Site
					{
						OFFSET -0.0832 0.0 0.0
					}
				}
			}
		}
		JOINT ShoulderRight
		{
			OFFSET 0.14 0 0
			CHANNELS 3 Zrotation Yrotation Xrotation
			JOINT ElbowRight
			{
				OFFSET 0.25 0 0
				CHANNELS 3 Zrotation Yrotation Xrotation
				JOINT WristRight
				{
					OFFSET 0.23 0 0
					CHANNELS 3 Zrotation Yrotation Xrotation
					End Site
					{
						OFFSET 0.0832 0.0 0.0
					}
				}
			}
		}
	}
	JOINT HipLeft
	{
		OFFSET -0.0952 0 0
		CHANNELS 3 Zrotation Yrotation Xrotation
		JOINT KneeLeft
		{
			OFFSET 0 -0.3732 0
			CHANNELS 3 Zrotation Yrotation Xrotation
			JOINT AnkleLeft
			{
				OFFSET 0 -0.346 0
				CHANNELS 3 Zrotation Yrotation Xrotation
				End Site
				{
					OFFSET 0.0 0.0 0.0891
				}
			}
		}
	}
	JOINT HipRight
	{
		OFFSET 0.0952 0 0
		CHANNELS 3 Zrotation Yrotation Xrotation
		JOINT KneeRight
		{
			OFFSET 0 -0.3732 0
			CHANNELS 3 Zrotation Yrotation Xrotation
			JOINT AnkleRight
			{
				OFFSET 0 -0.346 0
				CHANNELS 3 Zrotation Yrotation Xrotation
				End Site
				{
					OFFSET 0.0 0.0 0.0891
				}
			}
		}
	}
}
MOTION
Frames: 19
Frame Time: 0.033333
-1.35841e-05 0.366782 -2.64461 10.3346 -17.7105 -22.0216 5.96193 -1.34078 12.6292 0 0 0 71.7374 -0.525184 43.6647 1.5423e-06 51.4334 7.42815e-07 0 0 0 -94.2101 -2.8824 22.8088 3.03031e-06 -31.7546 -4.41246e-06 0 -3.20165e-06 0 -6.71286 2.05908 18.1386 1.47444 1.3694 14.3827 0 0 0 -5.10412 0.937275 11.755 3.29598 -0.0934812 -2.81359 0 0 0 
-0.0102234 0.366782 -2.65657 9.64819 -16.7712 -20.3929 6.52425 -1.61793 11.2854 0 0 0 67.2894 -6.0299 42.1368 -1.2654e-05 62.1902 -1.56082e-05 0 0 0 -92.842 -3.26403 29.9453 3.17839e-06 -33.219 -9.48093e-07 0 0 0 -4.68862 1.40017 15.8894 0.421396 1.16094 14.1976 0 0 0 -3.48918 0.516784 9.68256 2.91181 -0.0618286 -3.94099 2.13443e-07 1.70755e-06 3.18055e-15 
-0.0160666 0.377539 -2.66733 9.11539 -17.5946 -19.2768 8.8723 -1.69383 10.3291 0 0 0 63.8003 -7.79558 41.5529 8.43087e-07 64.6706 5.33705e-07 1.01778e-13 3.41509e-06 3.41509e-06 -94.2289 -3.38863 29.0471 3.96577e-06 -34.1774 2.35366e-06 0 0 0 -2.93006 0.77673 12.9919 -0.515921 0.924039 15.0831 0 0 0 -1.8847 0.143546 7.69566 2.6581 0.0519961 -3.7956 0 0 0 
-0.0213307 0.377539 -2.68091 9.41721 -19.486 -17.4605 8.69973 -0.129872 9.22994 0 0 0 63.7288 -4.56775 46.9731 4.21169e-06 56.0486 -1.62702e-06 0 0 0 -93.9885 -3.00395 28.52 5.95389e-06 -35.0474 1.70133e-06 0 0 0 -2.67449 0.306769 9.83205 2.93359 -0.0237993 5.26877 0 0 0 -0.534737 -0.00295609 4.80983 1.61931 0.0561883 -2.96384 0 0 0 
-0.0251472 0.377539 -2.68148 9.75868 -19.5773 -17.5264 7.84854 -0.790178 9.30757 0 0 0 65.0816 -3.75959 31.9846 -5.50753e-06 46.4052 -6.07645e-06 0 0 0 -92.9974 -1.63743 26.7591 8.19317e-06 -36.9447 -6.33761e-06 0 0 0 -2.64869 0.252166 8.85267 2.81203 -0.0198968 5.55799 0 1.33402e-08 0 0.211513 -0.0215558 3.37918 0.647257 0.0164713 -1.05439 0 0 0 
-0.0253565 0.375028 -2.68329 9.63761 -18.3559 -17.0135 7.74552 -2.12442 8.82097 0 0 0 65.048 -3.59367 31.2618 -1.00349e-06 47.8214 1.42294e-06 0 0 0 -93.1653 -1.60633 25.9376 5.61675e-06 -37.2053 1.71282e-06 0 0 0 -2.15119 0.335878 8.72944 2.59892 0.027649 4.40987 0 0 0 0.151129 0.0435892 2.60829 -0.619238 0.0556075 2.50995 0 0 0 
-0.0259744 0.373003 -2.68464 9.83018 -18.1698 -16.7001 7.36525 -2.6518 8.37566 -3.18055e-15 1.70755e-06 -2.13443e-07 69.5832 1.91785 29.2895 2.6831e-06 38.3211 -2.6831e-06 0 0 0 -96.7971 -2.16159 12.7303 5.31605e-06 -34.5691 -5.2308e-06 -1.06722e-07 3.18055e-15 3.41509e-06 -2.15007 0.18043 7.69876 2.20615 -0.00864156 4.9091 0 0 0 -0.379934 0.0624422 3.43146 -1.22021 0.101823 3.73022 0 0 0 
-0.0283643 0.358 -2.68706 10.6424 -20.5282 -15.6733 5.35599 -1.97713 6.06053 -7.95139e-16 -1.06722e-07 8.53774e-07 74.24 4.90523 29.842 -2.64585e-06 29.2607 -4.22023e-06 0 0 0 -93.4514 1.73086 6.60002 -2.40164e-07 -41.4193 -7.21122e-06 0 0 0 -2.26858 0.109397 5.5136 2.79909 -0.031416 2.56218 4.77083e-15 1.70755e-06 3.20165e-07 -1.50116 0.0849071 3.21007 -0.355158 0.0947458 3.21203 0 0 0 
-0.0315788 0.358 -2.69425 11.5808 -24.2117 -15.0913 4.76007 -0.00471861 5.26272 -1.06722e-07 7.95139e-16 8.53774e-07 77.0363 7.42256 28.7096 -5.56403e-06 24.6405 5.32587e-07 0 0 0 -92.7864 2.5899 2.13279 5.8613e-06 -41.4754 -2.21921e-06 0 0 0 -1.31943 -0.11292 3.25012 4.51164 0.0156413 -0.26623 0 0 0 -1.47802 0.252535 3.90138 -2.36804 0.469816 7.24943 0 0 0 
-0.0315788 0.358 -2.69934 11.3242 -25.1808 -13.9968 5.43271 0.372145 4.18895 0 0 0 77.5237 7.79634 28.576 -8.97317e-06 22.5329 -3.52865e-06 0 0 0 -91.0763 3.67887 2.29172 -3.35421e-06 -43.2584 -6.01754e-06 0 0 0 -1.00495 -0.293588 1.80483 6.04105 0.136713 -1.6156 0 0 0 -0.846338 0.213112 4.08697 -2.77514 0.326684 4.85787 0 0 0 
-0.0315788 0.366763 -2.70225 11.4388 -24.9055 -13.9682 5.29727 0.0884436 4.00913 -9.93923e-16 -1.06722e-07 1.06722e-06 77.5421 7.81937 28.6465 -1.07252 21.9175 -0.401991 0 0 0 -88.052 5.20837 3.86264 2.73244e-07 -44.1637 -3.79628e-06 0 0 3.41509e-06 -5.44814 -1.74245 3.90845 14.504 1.06074 -6.69533 0 0 0 -1.341 0.422037 5.37373 -4.62162 0.547396 5.09571 0 0 0 
-0.0290475 0.370277 -2.70953 11.3682 -24.6409 -13.7931 5.54521 -0.495466 4.51594 -8.53774e-07 6.36111e-15 8.53774e-07 76.6452 7.21884 24.7202 -9.75907e-06 24.7877 -2.14458e-06 0 0 0 -89.0896 5.0075 -2.10716 7.23767e-06 -41.9766 -2.77658e-06 0 0 0 -4.71481 -1.38935 2.85335 12.7056 0.864962 -6.18224 0 0 0 -3.81444 0.65863 8.5873 -2.20038 0.314166 2.92388 0 0 0 
-0.0169418 0.38512 -2.73514 10.845 -22.2527 -16.5976 6.75347 -1.59837 15.1595 -1.70755e-06 0 0 74.5494 15.7458 21.9449 -7.26048e-06 24.263 -3.30724e-06 0 0 0 -87.6205 -9.07648 7.22895 -4.81695e-06 -37.0288 1.61308e-06 0 0 0 -4.42299 -1.43883 5.22528 12.8887 1.30897 -8.71716 -8.53774e-07 1.70755e-06 -1.27222e-14 -4.78448 1.01936 11.7635 -0.418346 0.275653 2.94317 0 0 0 
-0.0133726 0.397861 -2.75263 10.105 -21.9534 -16.277 6.93385 -1.71774 15.1766 0 0 0 73.9568 16.9691 25.2861 1.37467e-07 22.7025 1.76921e-06 0 0 0 -86.6182 -10.5897 8.56495 -5.43519e-06 -31.8152 1.54903e-06 0 0 0 -2.27665 -1.11969 3.09016 10.6088 1.08854 -7.36592 0 0 0 -3.12529 0.632363 9.70276 -1.91975 0.467039 5.22451 0 1.70755e-06 0 
-0.0116657 0.401827 -2.75553 9.67053 -21.1979 -15.9398 5.96939 -1.40855 11.3376 0 0 0 75.403 12.6503 25.4493 -0.740712 21.3465 -0.162502 2.54444e-14 1.70755e-06 1.70755e-06 -85.4674 -6.72947 7.38915 1.70086e-06 -29.4915 -7.51047e-06 0 0 0 -1.97078 -0.990509 2.68715 9.82821 1.00377 -7.20785 0 0 0 -2.6829 0.538457 9.17977 -1.97634 0.456898 5.552 0 0 0 
-0.0080956 0.406667 -2.76281 9.40605 -21.5874 -15.7985 5.3252 -0.830982 8.9916 3.08116e-15 1.65419e-06 2.13443e-07 76.776 9.65808 25.9825 -1.76021 20.6542 -0.330914 0 0 0 -87.0661 -0.584079 -3.20223 7.10004e-06 -33.869 -5.73172e-06 0 0 0 -1.5498 -0.946648 1.58361 9.65124 0.87169 -6.09293 0 0 0 -2.11647 0.710276 8.27115 -3.78129 1.12112 10.6546 0 0 0 
-0.00055575 0.412119 -2.77488 8.1073 -20.3731 -17.2209 5.42618 -1.15569 11.9239 0 -5.33609e-08 0 75.0286 7.05539 18.2167 -6.80778e-06 26.279 -3.34262e-06 0 0 0 -86.5392 -6.20775 -4.4189 9.0644e-06 -26.1128 -3.4922e-07 0 0 0 -0.612281 -0.92773 3.62189 9.38359 1.00366 -6.35224 0 0 2.13443e-07 -1.51646 0.473381 10.5259 -2.27822 0.639113 9.73524 0 0 0 
0.011554 0.412119 -2.78321 5.99519 -20.3143 -16.1096 9.69379 -2.16762 11.9189 0 0 0 71.1444 6.78885 16.8979 4.37903e-06 26.4315 -7.25636e-07 0 0 0 -88.4119 -6.44292 -0.25804 2.07035e-06 -27.5762 -7.54092e-06 0 0 0 0.523496 -1.39714 2.9297 11.085 1.5994 -7.72108 0 0 0 0.29419 0.161415 8.39449 -1.699 0.328198 12.4052 -4.26887e-07 -1.59028e-15 -4.26887e-07 
0.0161238 0.412119 -2.79103 6.58892 -22.0988 -15.9282 3.91593 -0.652277 11.0032 0 0 0 74.9699 6.27724 23.2176 -6.91357e-06 25.3651 -1.55583e-06 0 0 0 -83.2007 -4.70824 -5.484 -8.42725e-06 -27.2008 -1.47479e-06 0 0 0 0.359921 -1.18811 1.17392 10.4461 1.30046 -6.81033 0 1.70755e-06 0 -1.04505 0.18072 8.36302 -0.121689 0.237489 10.8818 0 0 0 
